<?xml version="1.0" encoding="UTF-8"?>
<svg id="Layer_1" data-name="Layer 1" xmlns="http://www.w3.org/2000/svg" xmlns:xlink="http://www.w3.org/1999/xlink" viewBox="0 0 490.83 113.87">
  <defs>
    <style>
      .cls-1 {
        fill: url(#linear-gradient-2);
      }

      .cls-2 {
        fill: url(#linear-gradient-10);
      }

      .cls-2, .cls-3, .cls-4, .cls-5, .cls-6, .cls-7, .cls-8, .cls-9 {
        stroke: #fff;
        stroke-miterlimit: 10;
        stroke-width: 2px;
      }

      .cls-3 {
        fill: url(#linear-gradient-5);
      }

      .cls-4 {
        fill: url(#linear-gradient-7);
      }

      .cls-10 {
        fill: url(#linear-gradient-4);
      }

      .cls-11 {
        fill: url(#linear-gradient-3);
      }

      .cls-5 {
        fill: url(#linear-gradient-9);
      }

      .cls-6 {
        fill: url(#linear-gradient-6);
      }

      .cls-7 {
        fill: url(#linear-gradient-12);
      }

      .cls-8 {
        fill: url(#linear-gradient-8);
      }

      .cls-12 {
        fill: url(#linear-gradient);
      }

      .cls-9 {
        fill: url(#linear-gradient-11);
      }
    </style>
    <linearGradient id="linear-gradient" x1="74.9" y1="4.1" x2="74.9" y2="92.95" gradientUnits="userSpaceOnUse">
      <stop offset="0" stop-color="#6cbce9"/>
      <stop offset="1" stop-color="#1f7bc0"/>
    </linearGradient>
    <linearGradient id="linear-gradient-2" x1="73.39" y1="7.87" x2="73.39" y2="88.55" gradientUnits="userSpaceOnUse">
      <stop offset="0" stop-color="#72bfea"/>
      <stop offset="1" stop-color="#429ad5"/>
    </linearGradient>
    <linearGradient id="linear-gradient-3" x1="394.08" y1="325.15" x2="394.08" y2="201.48" gradientTransform="translate(-71.62 325.02) scale(1 -1)" gradientUnits="userSpaceOnUse">
      <stop offset="0" stop-color="#6dbce9"/>
      <stop offset="1" stop-color="#217cc1"/>
    </linearGradient>
    <linearGradient id="linear-gradient-4" x1="393.48" y1="330.31" x2="393.48" y2="211.18" gradientTransform="translate(-71.62 325.02) scale(1 -1)" gradientUnits="userSpaceOnUse">
      <stop offset="0" stop-color="#72bfea"/>
      <stop offset="1" stop-color="#439ad5"/>
    </linearGradient>
    <linearGradient id="linear-gradient-5" x1="191.08" y1="13.02" x2="191.08" y2="79.55" gradientUnits="userSpaceOnUse">
      <stop offset="0" stop-color="#fff"/>
      <stop offset=".99" stop-color="#8ed6f7"/>
      <stop offset="1" stop-color="#000"/>
    </linearGradient>
    <linearGradient id="linear-gradient-6" x1="235.38" y1="28.58" x2="235.38" y2="80.8" xlink:href="#linear-gradient-5"/>
    <linearGradient id="linear-gradient-7" x1="271.16" y1="10.62" x2="271.16" y2="79.65" xlink:href="#linear-gradient-5"/>
    <linearGradient id="linear-gradient-8" x1="308.03" y1="29.06" x2="308.03" y2="95.87" xlink:href="#linear-gradient-5"/>
    <linearGradient id="linear-gradient-9" x1="369.67" x2="369.67" xlink:href="#linear-gradient-5"/>
    <linearGradient id="linear-gradient-10" x1="421.81" y1="28.58" x2="421.81" y2="80.8" xlink:href="#linear-gradient-5"/>
    <linearGradient id="linear-gradient-11" x1="465.58" y1="17.63" x2="465.58" y2="80.61" xlink:href="#linear-gradient-5"/>
    <linearGradient id="linear-gradient-12" x1="74" y1="18.7" x2="74" y2="78.62" xlink:href="#linear-gradient-5"/>
  </defs>
  <g>
    <path class="cls-12" d="M31.67,18.12c9.74,0,18.16-14.68,46.28-13.99,16.25.4,72.05,12.6,71.86,41.36-.09,13.91-4.92,32.34-30.3,41.04-41.77,14.31-72.56,1.64-86.34-8.12-7.41-5.25-27.09,14.5-31.95,4.35-3.75-7.83,2.32-23.21,2.35-37.32.02-13.52-3.77-28.44.97-35.6,5.34-8.07,22.88,8.29,27.13,8.29h0Z"/>
    <path class="cls-1" d="M30.82,23.15c8.92,0,20.76-15.9,46.51-15.27,14.87.36,65.96,11.54,65.79,37.86-.08,12.73-4.51,29.61-27.74,37.57-38.24,13.1-70.05-1.45-82.66-10.38-6.78-4.8-23.77,14.75-28.21,5.46-3.43-7.17,4.71-19.77,4.73-32.7.02-12.38-6.55-24.56-2.21-31.12,4.89-7.39,19.91,8.57,23.8,8.57h0Z"/>
  </g>
  <g>
    <path class="cls-11" d="M186.24,86.11s-.64,10.09-17.15,9.75c-15.68-.32-14.19-9.43-15.01-11.99,2.01-18.83,9.65-67.12,10.16-72.11.67-6.45,4.6-11.01,9.59-11.36,7.14-.51,12.53-.15,15.88-.01,4.92.21,8,6.3,8,6.3,0,0,4.49-6.51,9.24-6.49,1.59,0,8.35-.33,15.59.05,3.16.17,7.21,2.83,8.35,7.41,1.37,5.51-.51,13.1-.51,13.1,0,0,8.88-2.16,15.3-1.31,5.93.79,12.79,4.1,12.79,4.1,0,0,.53-3.57,2.54-13.12,1.66-7.89,5.16-10.47,13.08-10.21,1.56.05,7.85.06,12.66.37,4.64.31,7.59,4.64,7.39,8.29-.29,5.44-1.2,12.45-1.2,12.45,0,0,4.41-.78,8.14-.52,3.85.27,8.26,1.59,8.26,1.59,0,0,5.49-2.98,12.59-2.45,9.77.73,15.16,4.41,15.16,4.41,0,0,1.6-7.93,2.18-12.82.37-3.14,1.31-11.96,13.15-11.17,2.89.19,6.74-.1,11.54,0,2.34.05,9.26.8,10.23,8.64.23,4.44.91,5.37.91,5.37,0,0,1.07-1.63,1.6-3.14,1.01-2.95-.59-10.74,11.94-11.21,3.08-.12,6.99.36,10.75.29,3.66-.07,11.27,4.47,10.05,11.11-1.14,6.16-1.62,12.04-1.62,12.04,0,0,9.5-4.39,19.14-4.16,8.77.21,16.44,4.95,16.44,4.95l6.3-2.59s.44-1.74,1.4-5.62c.54-2.18.88-6.65,8.68-7.96,3.45-.58,6.73-.12,14.33.24,3.75.18,8.13,4.36,7.81,8.16-.44,5.1-.25,5.09-.25,5.09,0,0,1.11.52,3.91.47,1.94-.03,5.51,1.93,5.24,8-.1,2.29-.35,5.04-.71,8.14-.48,4.13-1.32,13.88-9.22,14.83-3.11.37-4.72.54-4.72.54l-1.81,10.8s.42.02,3.4.28c1.73.15,6.53,1.13,6.53,9,0,8.16-1.56,23.34-20.81,22.81-15.86-.44-21.1-9.91-21.1-9.91,0,0-8.47,9.53-23.01,9.59-16.16.07-21.24-8.46-21.24-8.46,0,0-4.7,10.35-23.16,8.14-13.23-1.58-12.83-14.27-12.83-14.27,0,0-1.51,13.28-13.63,14.21-15.98,1.23-18.49-6.15-18.49-6.15,0,0-4.69,5.05-11.84,6.15-6.73,1.04-12.6.24-12.6.24,0,0-.93,3.38-1.38,6.73-1.13,8.56-5.03,11.3-13.98,11.16-1.79-.03-4.3-.04-8.17-.07-3.65-.03-7.4-1.33-8.82-5.46-1.51-4.39-.57-12.05-.57-12.05,0,0-7.95-.63-11.09-1.84-2.83-1.09-6.94-5.12-6.94-5.12,0,0-6.24,4.77-16.58,6.47-10.85,1.78-19.67-3.55-19.67-3.55,0,0-8.81,5.01-20.15,3.44-8.3-1.15-12.01-9.59-12.01-9.59h0Z"/>
    <path class="cls-10" d="M156.43,79.3c2.38-20.35,6.09-44.87,8.75-63.42,1.88-13.11,6.34-13.8,9.35-13.8,3.27,0,7-.48,13.13-.14,6.28.35,7.74,10.73,7.74,10.73,0,0,5.88-9.8,11.52-9.93,3.97-.09,6.82-.61,12.6-.24,3.48.22,8.69,0,7.92,11.34-.41,6.05-2.42,10.36-2.42,10.36,0,0,7.94-3.08,15.53-2.48,10.35.82,20.1,5.31,20.1,5.31,0,0,1.31-8.8,2-15.59.35-3.46,1.51-8.6,9.79-9.25,3.08-.24,6.09.26,10.19.02,1.58-.09,8.42,2.89,8.29,7.79-.23,8.5-1.03,14.36-1.03,14.36,0,0,6.95-1.26,9.88-1.07,3.03.19,8.61,2.22,8.61,2.22,0,0,8.07-3.61,12.75-3.2,5.15.45,18,5.81,18,5.81,0,0,1.58-10.74,2.05-15.36.3-2.97,1.27-10.46,10.25-10.92,4.3-.22,4.86,0,10.87.34,1.06.06,7.42.9,9.15,8.71,1.28,5.75,2.7,7.61,2.7,7.61,0,0,2.54-1.84,4.27-8.14.73-2.67,2.09-8.38,9.8-8.22,1.71.04,5.73.12,10.66.26,5.15.15,7.15,6.04,6.42,11.89-.78,6.27-2.66,13.77-2.66,13.77,0,0,12.6-6.55,22.76-6.53,8.91.02,18.32,5.98,18.32,5.98l7.48-4.69s-.1-1.07,1.12-5.53c.65-2.38,1.49-7.91,10.55-7.71,1.84.04,3.68.09,5.41.19,6.58.36,9.6,1.54,9.51,6.35-.1,5.08,0,6.45,0,6.45,0,0,2.25.27,4.46.42,1.57.11,5.89.32,4.94,7.25-.42,3.04-.12,4.14-.98,8.3-.71,3.46-.78,9.08-7.67,9.76-4.8.47-5.85.26-6.86,6.96-.37,2.46-.93,10.24-.93,10.24,0,0,1.12.25,4.47.7,2.06.28,6.01,2.1,5.08,8.58-1.08,7.54.47,16.16-17.42,16.69-17.37.51-20.22-12.25-20.22-12.25,0,0-7.42,11.88-24.78,12.24-14.72.3-21.97-11.03-21.97-11.03,0,0-.58,10.93-19.13,10.86-12.41-.04-13.5-16.45-13.5-16.45l-4.18-.36s.32,17.37-16.29,17.15c-13.17-.17-12.04-10.17-12.04-10.17,0,0-6.96,7.47-11.84,9.22-4.51,1.62-17.16.94-17.16.94,0,0-.34,17.9-10.51,17.54-1.91-.07-5.34.05-9.42-.17-7.01-.39-7.08-4.87-6.96-9.42.11-3.78-.08-7.8-.08-7.8,0,0-10.17-.37-13.89-1.99-2.84-1.24-6.53-6.91-6.53-6.91,0,0-7.58,7.95-19.27,8.9-9.47.77-18.58-4.44-18.58-4.44,0,0-10.8,6.29-20.04,3.87-4.99-1.31-11.83-14.04-11.83-14.04,0,0-1.46,10.85-7.03,13.11-4.66,1.89-13.62,1.38-16.54-.53-3.31-2.17-5.11-6.89-4.7-10.42h0Z"/>
  </g>
  <g>
    <path class="cls-3" d="M185.75,37.37c1.79-1.53,3.58-3.35,5.38-5.46,1.79-2.11,3.5-4.26,5.14-6.47,1.63-2.21,3.15-4.39,4.56-6.57,1.41-2.17,2.62-4.12,3.65-5.85h12.77c1.79,0,2.69.73,2.69,2.2,0,.32-.06.67-.19,1.05-.13.38-.34.85-.62,1.39-.29.54-.67,1.21-1.15,2.01-.48.8-1.1,1.77-1.87,2.92-2.18,3.45-5.02,7.13-8.54,11.02-3.52,3.9-7.2,7.54-11.04,10.93,1.54,2.18,2.96,4.73,4.27,7.64,1.31,2.92,2.5,5.96,3.55,9.13,1.06,3.17,1.97,6.33,2.74,9.47.77,3.14,1.38,6.06,1.82,8.75h-13.34c-1.6,0-2.69-.43-3.26-1.3-.58-.86-.96-1.84-1.15-2.93-.26-1.22-.61-2.88-1.05-5-.45-2.11-1.01-4.39-1.68-6.83-.67-2.44-1.42-4.89-2.25-7.35-.83-2.47-1.76-4.66-2.78-6.58l-5.76,29.99h-12.1c-1.22,0-2.06-.24-2.54-.72s-.72-1.17-.72-2.06c0-.64.18-1.89.53-3.74.35-1.86.72-3.81,1.1-5.86l10.56-54.14h12.1c1.21,0,2.06.24,2.54.72s.72,1.17.72,2.06c0,.64-.19,1.89-.58,3.74-.39,1.85-.77,3.8-1.15,5.85l-2.31,11.98Z"/>
    <path class="cls-6" d="M250.74,76.48c-2.3,1.22-5.03,2.24-8.16,3.07-3.14.83-6.5,1.25-10.08,1.25-2.82,0-5.38-.46-7.68-1.39-2.3-.93-4.27-2.27-5.9-4.03-1.63-1.76-2.9-3.89-3.79-6.38-.9-2.5-1.34-5.31-1.34-8.45,0-3.46.5-7.07,1.49-10.85.99-3.78,2.58-7.23,4.75-10.37,2.17-3.13,4.94-5.71,8.3-7.73,3.36-2.02,7.44-3.02,12.24-3.02,5.25,0,9.3,1.28,12.14,3.84,2.85,2.56,4.27,6.14,4.27,10.75,0,2.11-.45,4.24-1.34,6.38-.9,2.15-2.35,4.1-4.37,5.86-2.02,1.76-4.67,3.18-7.97,4.27-3.3,1.09-7.38,1.63-12.24,1.63h-2.11c0,2.75.69,4.64,2.06,5.66,1.38,1.02,3.09,1.54,5.14,1.54,1.28,0,2.58-.08,3.89-.24,1.31-.16,2.42-.37,3.31-.62.58-.13,1.12-.27,1.63-.43.51-.16.96-.24,1.34-.24.9,0,1.52.3,1.87.91.35.61.69,1.49,1.01,2.64l1.54,5.95ZM231.35,52c3.78,0,6.69-.72,8.74-2.16,2.05-1.44,3.07-3.28,3.07-5.52,0-1.47-.42-2.61-1.25-3.41-.83-.8-1.89-1.2-3.17-1.2-2.11,0-4.07,1.09-5.86,3.26-1.79,2.18-2.94,5.18-3.46,9.02h1.92Z"/>
    <path class="cls-4" d="M273.72,61.92c-.1.57-.17,1.12-.22,1.66-.05.54-.07,1.03-.07,1.47,0,.89.19,1.49.58,1.8.38.32.82.47,1.3.47h1.15c.77,0,1.31.25,1.62.76.31.51.52,1.42.61,2.75l.43,6.83c-.14.13-.48.28-1.01.47-.53.19-1.19.41-1.98.66-.79.25-1.69.46-2.7.62-1.01.16-2.07.24-3.17.24s-2.28-.17-3.39-.52c-1.11-.35-2.07-.93-2.88-1.75-.82-.82-1.48-1.91-1.98-3.27-.5-1.36-.76-3.02-.76-4.98,0-1.26.07-2.67.22-4.22.14-1.55.34-3.02.58-4.41l7.71-49.87h8.72c1.73,0,2.59.82,2.59,2.47,0,.51-.04,1.03-.11,1.56-.07.54-.16,1.19-.25,1.94l-6.99,45.32Z"/>
    <path class="cls-8" d="M290.65,54.11c.45-2.05.88-4.03,1.3-5.95.42-1.92,1.07-4,1.97-6.24h-1.63c-.77,0-1.42-.13-1.97-.38-.54-.25-.82-.77-.82-1.54,0-.51.11-1.31.34-2.4.22-1.09.46-2.24.72-3.46l.67-3.17c1.47-.38,3.74-.8,6.82-1.25,3.07-.45,6.82-.67,11.23-.67,3.52,0,6.75.37,9.7,1.1,2.94.74,5.47,1.94,7.58,3.6,2.11,1.67,3.74,3.84,4.9,6.53,1.15,2.69,1.73,5.99,1.73,9.89,0,4.22-.54,8.13-1.63,11.71-1.09,3.58-2.59,6.69-4.52,9.31-1.92,2.62-4.2,4.67-6.82,6.14-2.63,1.47-5.48,2.21-8.55,2.21-1.86,0-3.72-.35-5.57-1.06-1.86-.7-3.27-1.66-4.23-2.88l-4.13,20.26h-11.02c-.89,0-1.76-.11-2.59-.34-.83-.23-1.25-.98-1.25-2.26,0-.51.06-1.09.19-1.73.13-.64.25-1.31.38-2.02l7.2-35.42ZM308.39,66.88c1.67,0,3.08-.59,4.23-1.78,1.16-1.18,2.09-2.65,2.79-4.42.71-1.76,1.22-3.68,1.54-5.76.32-2.08.48-4.02.48-5.81,0-2.62-.56-4.64-1.69-6.05-1.12-1.41-2.78-2.11-4.96-2.11h-.87c-.39,0-.74.03-1.06.1l-4.9,24.77c1.09.71,2.56,1.06,4.42,1.06Z"/>
    <path class="cls-5" d="M386.67,79.55h-11.81c-1.09,0-1.97-.25-2.64-.77-.67-.51-1.14-1.41-1.39-2.69-.51-2.69-1.1-5.77-1.78-9.26-.67-3.49-1.36-7.01-2.07-10.56-.71-3.55-1.42-6.98-2.16-10.27-.74-3.3-1.42-6.13-2.06-8.5l-8.06,42.05h-10.85c-1.15,0-1.97-.24-2.45-.72-.48-.48-.72-1.17-.72-2.06,0-.64.18-1.89.53-3.74.35-1.86.72-3.81,1.1-5.86l10.37-54.14h10.66c1.6,0,2.77.22,3.5.67.74.45,1.33,1.38,1.78,2.78.64,2.24,1.33,4.86,2.06,7.87.74,3.01,1.46,6.16,2.16,9.46.7,3.3,1.39,6.62,2.06,9.98.67,3.36,1.3,6.51,1.87,9.46l7.87-40.22h10.85c1.15,0,1.97.24,2.45.72.48.48.72,1.17.72,2.06,0,.64-.19,1.89-.58,3.74-.38,1.86-.74,3.81-1.06,5.86l-10.37,54.14Z"/>
    <path class="cls-2" d="M437.17,76.48c-2.3,1.22-5.02,2.24-8.16,3.07-3.13.83-6.5,1.25-10.08,1.25-2.82,0-5.38-.46-7.68-1.39-2.3-.93-4.27-2.27-5.9-4.03-1.63-1.76-2.9-3.89-3.79-6.38-.9-2.5-1.34-5.31-1.34-8.45,0-3.46.5-7.07,1.49-10.85.99-3.78,2.58-7.23,4.75-10.37,2.17-3.13,4.94-5.71,8.3-7.73,3.36-2.02,7.44-3.02,12.24-3.02,5.25,0,9.3,1.28,12.14,3.84,2.85,2.56,4.27,6.14,4.27,10.75,0,2.11-.45,4.24-1.34,6.38-.9,2.15-2.35,4.1-4.37,5.86-2.02,1.76-4.67,3.18-7.97,4.27-3.3,1.09-7.38,1.63-12.24,1.63h-2.11c0,2.75.69,4.64,2.06,5.66,1.38,1.02,3.09,1.54,5.13,1.54,1.28,0,2.58-.08,3.89-.24,1.31-.16,2.41-.37,3.31-.62.58-.13,1.12-.27,1.63-.43.51-.16.96-.24,1.34-.24.9,0,1.52.3,1.87.91.35.61.69,1.49,1.01,2.64l1.54,5.95ZM417.78,52c3.78,0,6.69-.72,8.74-2.16,2.05-1.44,3.07-3.28,3.07-5.52,0-1.47-.42-2.61-1.25-3.41-.83-.8-1.89-1.2-3.17-1.2-2.11,0-4.06,1.09-5.86,3.26-1.79,2.18-2.94,5.18-3.46,9.02h1.92Z"/>
    <path class="cls-9" d="M471.76,67.94c.32-.06.62-.11.91-.14.28-.03.55-.05.81-.05.89,0,1.49.34,1.81,1.01.32.67.57,1.52.76,2.54l1.06,6.62c-1.09.51-2.91,1.09-5.46,1.73-2.55.64-5.55.96-9,.96-1.85,0-3.59-.24-5.22-.72-1.63-.48-3.03-1.2-4.21-2.16-1.18-.96-2.11-2.16-2.78-3.6-.67-1.44-1-3.12-1-5.04,0-1.02.06-2.18.19-3.46.13-1.28.29-2.37.48-3.26l4.03-20.45h-2.39c-1.98,0-2.98-.83-2.98-2.5,0-.32.06-.88.19-1.68.13-.8.25-1.58.38-2.35l1.25-5.66h6.03l3.26-12.1h10.57c2.37,0,3.55.83,3.55,2.5,0,.51-.03,1.04-.1,1.58-.06.54-.19,1.23-.38,2.06l-1.25,5.95h7.12c1.98,0,2.98.83,2.98,2.5,0,.32-.06.88-.19,1.68-.13.8-.26,1.58-.38,2.35l-1.15,5.66h-10.77l-4.03,19.87c-.13.51-.22,1.07-.29,1.68-.06.61-.1,1.17-.1,1.68,0,.9.3,1.63.9,2.21.6.58,1.44.86,2.52.86.7,0,1.19-.01,1.48-.05.29-.03.75-.11,1.38-.24Z"/>
  </g>
  <path class="cls-7" d="M32.74,39.33c3.19-.21,15.51-21.46,47.79-20.6,28.84.76,50.17,16.13,49.85,28.7-.15,5.83-4.58,31.07-47.32,31.2-36.93.11-48.06-22.38-50.99-22.47-.66-.02-11.98,12.39-13.9,8.58-1.96-3.88,2-10.42,2.16-17.84.16-7.59-4.46-14.02-1.3-16.83,2.49-2.21,10.96,9.44,13.72,9.26ZM106.02,44.85c2.06,0,3.74-1.67,3.74-3.74s-1.67-3.74-3.74-3.74-3.74,1.67-3.74,3.74,1.67,3.74,3.74,3.74Z"/>
</svg>